<mxfile host="app.diagrams.net" modified="2023-10-24T21:29:14.958Z" agent="Mozilla/5.0 (Macintosh; Intel Mac OS X 10_15_7) AppleWebKit/605.1.15 (KHTML, like Gecko) Version/16.6 Safari/605.1.15" etag="QwqjB9YKiwhfsuVsYpR0" version="22.0.7" type="device">
  <diagram id="Z2M4KqjBDWy2rEkrfT4u" name="Страница 1">
    <mxGraphModel dx="1207" dy="1895" grid="1" gridSize="10" guides="1" tooltips="1" connect="1" arrows="1" fold="1" page="1" pageScale="1" pageWidth="827" pageHeight="1169" math="0" shadow="0">
      <root>
        <mxCell id="0" />
        <mxCell id="1" parent="0" />
        <mxCell id="HAvDtYt2oqqFqfZ09htg-24" style="edgeStyle=orthogonalEdgeStyle;rounded=0;orthogonalLoop=1;jettySize=auto;html=1;entryX=0.25;entryY=0;entryDx=0;entryDy=0;" parent="1" source="eZfpJ5O-ILhCXWeTk2KZ-27" target="eZfpJ5O-ILhCXWeTk2KZ-20" edge="1">
          <mxGeometry relative="1" as="geometry">
            <Array as="points">
              <mxPoint x="220" y="250" />
              <mxPoint x="370" y="250" />
            </Array>
          </mxGeometry>
        </mxCell>
        <mxCell id="eZfpJ5O-ILhCXWeTk2KZ-27" value="" style="rounded=1;whiteSpace=wrap;html=1;" parent="1" vertex="1">
          <mxGeometry x="170" y="20" width="100" height="50" as="geometry" />
        </mxCell>
        <mxCell id="HAvDtYt2oqqFqfZ09htg-23" style="edgeStyle=orthogonalEdgeStyle;rounded=0;orthogonalLoop=1;jettySize=auto;html=1;exitX=0.5;exitY=1;exitDx=0;exitDy=0;entryX=0.733;entryY=-0.014;entryDx=0;entryDy=0;entryPerimeter=0;" parent="1" source="eZfpJ5O-ILhCXWeTk2KZ-15" target="eZfpJ5O-ILhCXWeTk2KZ-7" edge="1">
          <mxGeometry relative="1" as="geometry" />
        </mxCell>
        <mxCell id="eZfpJ5O-ILhCXWeTk2KZ-15" value="" style="rounded=1;whiteSpace=wrap;html=1;" parent="1" vertex="1">
          <mxGeometry x="570" y="-20" width="200" height="90" as="geometry" />
        </mxCell>
        <mxCell id="F-zjbx1C7OTSH0Jt7pCQ-10" style="edgeStyle=orthogonalEdgeStyle;rounded=0;orthogonalLoop=1;jettySize=auto;html=1;exitX=0.25;exitY=1;exitDx=0;exitDy=0;entryX=0.25;entryY=0;entryDx=0;entryDy=0;" edge="1" parent="1" source="eZfpJ5O-ILhCXWeTk2KZ-9" target="eZfpJ5O-ILhCXWeTk2KZ-2">
          <mxGeometry relative="1" as="geometry">
            <Array as="points">
              <mxPoint x="340" y="70" />
              <mxPoint x="340" y="115" />
              <mxPoint x="316" y="115" />
            </Array>
          </mxGeometry>
        </mxCell>
        <mxCell id="eZfpJ5O-ILhCXWeTk2KZ-9" value="" style="rounded=1;whiteSpace=wrap;html=1;" parent="1" vertex="1">
          <mxGeometry x="294" y="-20" width="260" height="90" as="geometry" />
        </mxCell>
        <mxCell id="eZfpJ5O-ILhCXWeTk2KZ-11" style="edgeStyle=orthogonalEdgeStyle;rounded=0;orthogonalLoop=1;jettySize=auto;html=1;exitX=0.25;exitY=1;exitDx=0;exitDy=0;entryX=0.75;entryY=0;entryDx=0;entryDy=0;" parent="1" source="eZfpJ5O-ILhCXWeTk2KZ-1" target="eZfpJ5O-ILhCXWeTk2KZ-2" edge="1">
          <mxGeometry relative="1" as="geometry">
            <Array as="points">
              <mxPoint x="421" y="140" />
              <mxPoint x="385" y="140" />
            </Array>
          </mxGeometry>
        </mxCell>
        <mxCell id="eZfpJ5O-ILhCXWeTk2KZ-12" style="edgeStyle=orthogonalEdgeStyle;rounded=0;orthogonalLoop=1;jettySize=auto;html=1;exitX=0.5;exitY=1;exitDx=0;exitDy=0;entryX=0.5;entryY=0;entryDx=0;entryDy=0;" parent="1" source="eZfpJ5O-ILhCXWeTk2KZ-1" target="eZfpJ5O-ILhCXWeTk2KZ-6" edge="1">
          <mxGeometry relative="1" as="geometry" />
        </mxCell>
        <mxCell id="eZfpJ5O-ILhCXWeTk2KZ-13" style="edgeStyle=orthogonalEdgeStyle;rounded=0;orthogonalLoop=1;jettySize=auto;html=1;exitX=0.75;exitY=1;exitDx=0;exitDy=0;entryX=0.25;entryY=0;entryDx=0;entryDy=0;" parent="1" source="eZfpJ5O-ILhCXWeTk2KZ-1" target="eZfpJ5O-ILhCXWeTk2KZ-7" edge="1">
          <mxGeometry relative="1" as="geometry" />
        </mxCell>
        <mxCell id="eZfpJ5O-ILhCXWeTk2KZ-1" value="PizzaCore" style="rounded=1;whiteSpace=wrap;html=1;fillColor=#d5e8d4;strokeColor=#82b366;" parent="1" vertex="1">
          <mxGeometry x="354" y="100" width="266" height="30" as="geometry" />
        </mxCell>
        <mxCell id="HAvDtYt2oqqFqfZ09htg-25" style="edgeStyle=orthogonalEdgeStyle;rounded=0;orthogonalLoop=1;jettySize=auto;html=1;exitX=0.25;exitY=1;exitDx=0;exitDy=0;entryX=0.5;entryY=0;entryDx=0;entryDy=0;" parent="1" source="eZfpJ5O-ILhCXWeTk2KZ-2" target="HAvDtYt2oqqFqfZ09htg-1" edge="1">
          <mxGeometry relative="1" as="geometry" />
        </mxCell>
        <mxCell id="HAvDtYt2oqqFqfZ09htg-27" style="edgeStyle=orthogonalEdgeStyle;rounded=0;orthogonalLoop=1;jettySize=auto;html=1;exitX=0.5;exitY=1;exitDx=0;exitDy=0;entryX=0.5;entryY=0;entryDx=0;entryDy=0;" parent="1" source="eZfpJ5O-ILhCXWeTk2KZ-2" target="eZfpJ5O-ILhCXWeTk2KZ-20" edge="1">
          <mxGeometry relative="1" as="geometry">
            <Array as="points">
              <mxPoint x="346" y="240" />
              <mxPoint x="390" y="240" />
            </Array>
          </mxGeometry>
        </mxCell>
        <mxCell id="HAvDtYt2oqqFqfZ09htg-28" style="edgeStyle=orthogonalEdgeStyle;rounded=0;orthogonalLoop=1;jettySize=auto;html=1;exitX=0.75;exitY=1;exitDx=0;exitDy=0;entryX=0.25;entryY=0;entryDx=0;entryDy=0;" parent="1" source="eZfpJ5O-ILhCXWeTk2KZ-2" target="eZfpJ5O-ILhCXWeTk2KZ-17" edge="1">
          <mxGeometry relative="1" as="geometry">
            <Array as="points">
              <mxPoint x="400" y="190" />
              <mxPoint x="400" y="270" />
              <mxPoint x="465" y="270" />
            </Array>
          </mxGeometry>
        </mxCell>
        <mxCell id="r34TyWnjhJX_Jrxqc_E2-5" style="edgeStyle=orthogonalEdgeStyle;rounded=0;orthogonalLoop=1;jettySize=auto;html=1;exitX=1;exitY=1;exitDx=0;exitDy=0;entryX=0.25;entryY=0;entryDx=0;entryDy=0;" parent="1" source="eZfpJ5O-ILhCXWeTk2KZ-2" target="eZfpJ5O-ILhCXWeTk2KZ-6" edge="1">
          <mxGeometry relative="1" as="geometry" />
        </mxCell>
        <mxCell id="eZfpJ5O-ILhCXWeTk2KZ-2" value="PizzaDesign" style="rounded=1;whiteSpace=wrap;html=1;fillColor=#dae8fc;strokeColor=#6c8ebf;" parent="1" vertex="1">
          <mxGeometry x="281" y="160" width="139" height="30" as="geometry" />
        </mxCell>
        <mxCell id="eZfpJ5O-ILhCXWeTk2KZ-3" value="NVActivityIndicator" style="rounded=1;whiteSpace=wrap;html=1;fillColor=#f8cecc;strokeColor=#b85450;" parent="1" vertex="1">
          <mxGeometry x="304" y="30" width="120" height="30" as="geometry" />
        </mxCell>
        <mxCell id="eZfpJ5O-ILhCXWeTk2KZ-4" value="SnapKit" style="rounded=1;whiteSpace=wrap;html=1;fillColor=#f8cecc;strokeColor=#b85450;" parent="1" vertex="1">
          <mxGeometry x="434" y="30" width="50" height="30" as="geometry" />
        </mxCell>
        <mxCell id="eZfpJ5O-ILhCXWeTk2KZ-5" value="Nuke" style="rounded=1;whiteSpace=wrap;html=1;fillColor=#f8cecc;strokeColor=#b85450;" parent="1" vertex="1">
          <mxGeometry x="494" y="30" width="50" height="30" as="geometry" />
        </mxCell>
        <mxCell id="HAvDtYt2oqqFqfZ09htg-26" style="edgeStyle=orthogonalEdgeStyle;rounded=0;orthogonalLoop=1;jettySize=auto;html=1;exitX=0.75;exitY=1;exitDx=0;exitDy=0;entryX=0.75;entryY=0;entryDx=0;entryDy=0;" parent="1" source="eZfpJ5O-ILhCXWeTk2KZ-6" target="eZfpJ5O-ILhCXWeTk2KZ-17" edge="1">
          <mxGeometry relative="1" as="geometry" />
        </mxCell>
        <mxCell id="HAvDtYt2oqqFqfZ09htg-29" style="edgeStyle=orthogonalEdgeStyle;rounded=0;orthogonalLoop=1;jettySize=auto;html=1;exitX=0.25;exitY=1;exitDx=0;exitDy=0;entryX=0.75;entryY=0;entryDx=0;entryDy=0;" parent="1" source="eZfpJ5O-ILhCXWeTk2KZ-6" target="eZfpJ5O-ILhCXWeTk2KZ-20" edge="1">
          <mxGeometry relative="1" as="geometry">
            <Array as="points">
              <mxPoint x="459" y="280" />
              <mxPoint x="410" y="280" />
            </Array>
          </mxGeometry>
        </mxCell>
        <mxCell id="eZfpJ5O-ILhCXWeTk2KZ-6" value="PizzaNavigation" style="rounded=1;whiteSpace=wrap;html=1;fillColor=#dae8fc;strokeColor=#6c8ebf;" parent="1" vertex="1">
          <mxGeometry x="432" y="230" width="110" height="30" as="geometry" />
        </mxCell>
        <mxCell id="F-zjbx1C7OTSH0Jt7pCQ-1" style="edgeStyle=orthogonalEdgeStyle;rounded=0;orthogonalLoop=1;jettySize=auto;html=1;entryX=0.75;entryY=0;entryDx=0;entryDy=0;" edge="1" parent="1" source="eZfpJ5O-ILhCXWeTk2KZ-7" target="eZfpJ5O-ILhCXWeTk2KZ-31">
          <mxGeometry relative="1" as="geometry" />
        </mxCell>
        <mxCell id="eZfpJ5O-ILhCXWeTk2KZ-7" value="PizzaServices" style="rounded=1;whiteSpace=wrap;html=1;fillColor=#dae8fc;strokeColor=#6c8ebf;" parent="1" vertex="1">
          <mxGeometry x="560" y="230" width="150" height="30" as="geometry" />
        </mxCell>
        <mxCell id="eZfpJ5O-ILhCXWeTk2KZ-8" value="Defaults" style="rounded=1;whiteSpace=wrap;html=1;fillColor=#f8cecc;strokeColor=#b85450;" parent="1" vertex="1">
          <mxGeometry x="580" y="30" width="60" height="30" as="geometry" />
        </mxCell>
        <mxCell id="eZfpJ5O-ILhCXWeTk2KZ-14" value="KeychainSwift" style="rounded=1;whiteSpace=wrap;html=1;fillColor=#f8cecc;strokeColor=#b85450;" parent="1" vertex="1">
          <mxGeometry x="660" y="30" width="100" height="30" as="geometry" />
        </mxCell>
        <mxCell id="F-zjbx1C7OTSH0Jt7pCQ-2" style="edgeStyle=orthogonalEdgeStyle;rounded=0;orthogonalLoop=1;jettySize=auto;html=1;exitX=0.5;exitY=1;exitDx=0;exitDy=0;entryX=0.5;entryY=0;entryDx=0;entryDy=0;" edge="1" parent="1" source="eZfpJ5O-ILhCXWeTk2KZ-17" target="eZfpJ5O-ILhCXWeTk2KZ-31">
          <mxGeometry relative="1" as="geometry" />
        </mxCell>
        <mxCell id="eZfpJ5O-ILhCXWeTk2KZ-17" value="PizzaAlert" style="rounded=1;whiteSpace=wrap;html=1;fillColor=#ffe6cc;strokeColor=#d79b00;" parent="1" vertex="1">
          <mxGeometry x="444" y="300" width="86" height="30" as="geometry" />
        </mxCell>
        <mxCell id="eZfpJ5O-ILhCXWeTk2KZ-20" value="PizzaPopup" style="rounded=1;whiteSpace=wrap;html=1;fillColor=#ffe6cc;strokeColor=#d79b00;" parent="1" vertex="1">
          <mxGeometry x="350" y="300" width="80" height="30" as="geometry" />
        </mxCell>
        <mxCell id="eZfpJ5O-ILhCXWeTk2KZ-26" value="SwiftEntryKit" style="rounded=1;whiteSpace=wrap;html=1;fillColor=#f8cecc;strokeColor=#b85450;" parent="1" vertex="1">
          <mxGeometry x="180" y="30" width="80" height="30" as="geometry" />
        </mxCell>
        <mxCell id="LhDTBP9wFmFAkr84-ULj-2" style="edgeStyle=orthogonalEdgeStyle;rounded=0;orthogonalLoop=1;jettySize=auto;html=1;exitX=0.25;exitY=1;exitDx=0;exitDy=0;entryX=0.5;entryY=0;entryDx=0;entryDy=0;" parent="1" source="eZfpJ5O-ILhCXWeTk2KZ-31" target="LhDTBP9wFmFAkr84-ULj-1" edge="1">
          <mxGeometry relative="1" as="geometry" />
        </mxCell>
        <mxCell id="r34TyWnjhJX_Jrxqc_E2-3" style="edgeStyle=orthogonalEdgeStyle;rounded=0;orthogonalLoop=1;jettySize=auto;html=1;exitX=0.25;exitY=1;exitDx=0;exitDy=0;entryX=0.5;entryY=0;entryDx=0;entryDy=0;" parent="1" source="eZfpJ5O-ILhCXWeTk2KZ-31" target="r34TyWnjhJX_Jrxqc_E2-1" edge="1">
          <mxGeometry relative="1" as="geometry">
            <Array as="points">
              <mxPoint x="280" y="440" />
              <mxPoint x="280" y="505" />
              <mxPoint x="203" y="505" />
            </Array>
          </mxGeometry>
        </mxCell>
        <mxCell id="r34TyWnjhJX_Jrxqc_E2-4" style="edgeStyle=orthogonalEdgeStyle;rounded=0;orthogonalLoop=1;jettySize=auto;html=1;exitX=0.25;exitY=1;exitDx=0;exitDy=0;entryX=0.5;entryY=0;entryDx=0;entryDy=0;" parent="1" source="eZfpJ5O-ILhCXWeTk2KZ-31" target="r34TyWnjhJX_Jrxqc_E2-2" edge="1">
          <mxGeometry relative="1" as="geometry">
            <Array as="points">
              <mxPoint x="250" y="440" />
              <mxPoint x="250" y="490" />
              <mxPoint x="113" y="490" />
            </Array>
          </mxGeometry>
        </mxCell>
        <mxCell id="F-zjbx1C7OTSH0Jt7pCQ-5" style="edgeStyle=orthogonalEdgeStyle;rounded=0;orthogonalLoop=1;jettySize=auto;html=1;entryX=0.5;entryY=0;entryDx=0;entryDy=0;" edge="1" parent="1" source="eZfpJ5O-ILhCXWeTk2KZ-31" target="LhDTBP9wFmFAkr84-ULj-3">
          <mxGeometry relative="1" as="geometry">
            <Array as="points">
              <mxPoint x="430" y="505" />
              <mxPoint x="395" y="505" />
            </Array>
          </mxGeometry>
        </mxCell>
        <mxCell id="F-zjbx1C7OTSH0Jt7pCQ-6" style="edgeStyle=orthogonalEdgeStyle;rounded=0;orthogonalLoop=1;jettySize=auto;html=1;entryX=0.5;entryY=0;entryDx=0;entryDy=0;" edge="1" parent="1" source="eZfpJ5O-ILhCXWeTk2KZ-31" target="HAvDtYt2oqqFqfZ09htg-7">
          <mxGeometry relative="1" as="geometry" />
        </mxCell>
        <mxCell id="F-zjbx1C7OTSH0Jt7pCQ-7" style="edgeStyle=orthogonalEdgeStyle;rounded=0;orthogonalLoop=1;jettySize=auto;html=1;exitX=0.75;exitY=1;exitDx=0;exitDy=0;entryX=0.5;entryY=0;entryDx=0;entryDy=0;" edge="1" parent="1" source="eZfpJ5O-ILhCXWeTk2KZ-31" target="Mmu5pShzRMkCZM1wF8GE-1">
          <mxGeometry relative="1" as="geometry">
            <Array as="points">
              <mxPoint x="790" y="440" />
              <mxPoint x="790" y="505" />
              <mxPoint x="825" y="505" />
            </Array>
          </mxGeometry>
        </mxCell>
        <mxCell id="F-zjbx1C7OTSH0Jt7pCQ-8" style="edgeStyle=orthogonalEdgeStyle;rounded=0;orthogonalLoop=1;jettySize=auto;html=1;exitX=0.75;exitY=1;exitDx=0;exitDy=0;entryX=0.5;entryY=0;entryDx=0;entryDy=0;" edge="1" parent="1" source="eZfpJ5O-ILhCXWeTk2KZ-31" target="HAvDtYt2oqqFqfZ09htg-5">
          <mxGeometry relative="1" as="geometry" />
        </mxCell>
        <mxCell id="F-zjbx1C7OTSH0Jt7pCQ-9" style="edgeStyle=orthogonalEdgeStyle;rounded=0;orthogonalLoop=1;jettySize=auto;html=1;exitX=0.75;exitY=1;exitDx=0;exitDy=0;entryX=0.5;entryY=0;entryDx=0;entryDy=0;" edge="1" parent="1" source="eZfpJ5O-ILhCXWeTk2KZ-31" target="nopjgvNHTfkVnItvivi5-1">
          <mxGeometry relative="1" as="geometry">
            <Array as="points">
              <mxPoint x="630" y="440" />
              <mxPoint x="630" y="505" />
              <mxPoint x="593" y="505" />
            </Array>
          </mxGeometry>
        </mxCell>
        <mxCell id="eZfpJ5O-ILhCXWeTk2KZ-31" value="PizzaKit" style="rounded=1;whiteSpace=wrap;html=1;fillColor=#fff2cc;strokeColor=#d6b656;" parent="1" vertex="1">
          <mxGeometry x="220" y="410" width="620" height="30" as="geometry" />
        </mxCell>
        <mxCell id="HAvDtYt2oqqFqfZ09htg-1" value="PizzaComponents" style="rounded=1;whiteSpace=wrap;html=1;fillColor=#ffe6cc;strokeColor=#d79b00;" parent="1" vertex="1">
          <mxGeometry x="210" y="300" width="124" height="30" as="geometry" />
        </mxCell>
        <mxCell id="HAvDtYt2oqqFqfZ09htg-5" value="PizzaFirebaseFeatureToggle" style="rounded=1;whiteSpace=wrap;html=1;fillColor=#e1d5e7;strokeColor=#9673a6;" parent="1" vertex="1">
          <mxGeometry x="620" y="520" width="170" height="30" as="geometry" />
        </mxCell>
        <mxCell id="HAvDtYt2oqqFqfZ09htg-7" value="PizzaFeatureToggleUI" style="rounded=1;whiteSpace=wrap;html=1;fillColor=#e1d5e7;strokeColor=#9673a6;" parent="1" vertex="1">
          <mxGeometry x="410" y="520" width="145" height="30" as="geometry" />
        </mxCell>
        <mxCell id="HAvDtYt2oqqFqfZ09htg-10" value="SFSafeSymbols" style="rounded=1;whiteSpace=wrap;html=1;fillColor=#f8cecc;strokeColor=#b85450;" parent="1" vertex="1">
          <mxGeometry x="304" y="-10" width="100" height="30" as="geometry" />
        </mxCell>
        <mxCell id="HAvDtYt2oqqFqfZ09htg-11" value="SPIndicator" style="rounded=1;whiteSpace=wrap;html=1;fillColor=#f8cecc;strokeColor=#b85450;" parent="1" vertex="1">
          <mxGeometry x="414" y="-10" width="70" height="30" as="geometry" />
        </mxCell>
        <mxCell id="HAvDtYt2oqqFqfZ09htg-34" value="" style="endArrow=none;dashed=1;html=1;dashPattern=1 3;strokeWidth=2;rounded=0;" parent="1" edge="1">
          <mxGeometry width="50" height="50" relative="1" as="geometry">
            <mxPoint x="40" y="80" as="sourcePoint" />
            <mxPoint x="920" y="80" as="targetPoint" />
          </mxGeometry>
        </mxCell>
        <mxCell id="HAvDtYt2oqqFqfZ09htg-35" value="" style="endArrow=none;dashed=1;html=1;dashPattern=1 3;strokeWidth=2;rounded=0;" parent="1" edge="1">
          <mxGeometry width="50" height="50" relative="1" as="geometry">
            <mxPoint x="40" y="390" as="sourcePoint" />
            <mxPoint x="920" y="390" as="targetPoint" />
          </mxGeometry>
        </mxCell>
        <mxCell id="HAvDtYt2oqqFqfZ09htg-36" value="" style="endArrow=none;dashed=1;html=1;dashPattern=1 3;strokeWidth=2;rounded=0;" parent="1" edge="1">
          <mxGeometry width="50" height="50" relative="1" as="geometry">
            <mxPoint x="40" y="461" as="sourcePoint" />
            <mxPoint x="920" y="461" as="targetPoint" />
          </mxGeometry>
        </mxCell>
        <mxCell id="Mmu5pShzRMkCZM1wF8GE-1" value="PizzaFirebasePushNotifications" style="rounded=1;whiteSpace=wrap;html=1;fillColor=#e1d5e7;strokeColor=#9673a6;" parent="1" vertex="1">
          <mxGeometry x="730" y="570" width="190" height="30" as="geometry" />
        </mxCell>
        <mxCell id="Mmu5pShzRMkCZM1wF8GE-10" value="Reachability" style="rounded=1;whiteSpace=wrap;html=1;fillColor=#f8cecc;strokeColor=#b85450;" parent="1" vertex="1">
          <mxGeometry x="580" y="-10" width="80" height="30" as="geometry" />
        </mxCell>
        <mxCell id="LhDTBP9wFmFAkr84-ULj-1" value="PizzaAppThemeUI" style="rounded=1;whiteSpace=wrap;html=1;fillColor=#e1d5e7;strokeColor=#9673a6;" parent="1" vertex="1">
          <mxGeometry x="240" y="520" width="135" height="30" as="geometry" />
        </mxCell>
        <mxCell id="LhDTBP9wFmFAkr84-ULj-3" value="PizzaDesignSystemUI" style="rounded=1;whiteSpace=wrap;html=1;fillColor=#e1d5e7;strokeColor=#9673a6;" parent="1" vertex="1">
          <mxGeometry x="327.5" y="570" width="135" height="30" as="geometry" />
        </mxCell>
        <mxCell id="nopjgvNHTfkVnItvivi5-1" value="PizzaNativeDesignSystem" style="rounded=1;whiteSpace=wrap;html=1;fillColor=#e1d5e7;strokeColor=#9673a6;" parent="1" vertex="1">
          <mxGeometry x="515" y="570" width="155" height="30" as="geometry" />
        </mxCell>
        <mxCell id="r34TyWnjhJX_Jrxqc_E2-1" value="PizzaOnboarding" style="rounded=1;whiteSpace=wrap;html=1;fillColor=#e1d5e7;strokeColor=#9673a6;" parent="1" vertex="1">
          <mxGeometry x="135" y="570" width="135" height="30" as="geometry" />
        </mxCell>
        <mxCell id="r34TyWnjhJX_Jrxqc_E2-2" value="PizzaBlockingScreen" style="rounded=1;whiteSpace=wrap;html=1;fillColor=#e1d5e7;strokeColor=#9673a6;" parent="1" vertex="1">
          <mxGeometry x="45" y="520" width="135" height="30" as="geometry" />
        </mxCell>
        <mxCell id="F-zjbx1C7OTSH0Jt7pCQ-3" style="edgeStyle=orthogonalEdgeStyle;rounded=0;orthogonalLoop=1;jettySize=auto;html=1;exitX=0.5;exitY=1;exitDx=0;exitDy=0;entryX=0.311;entryY=-0.1;entryDx=0;entryDy=0;entryPerimeter=0;" edge="1" parent="1" source="eZfpJ5O-ILhCXWeTk2KZ-20" target="eZfpJ5O-ILhCXWeTk2KZ-31">
          <mxGeometry relative="1" as="geometry" />
        </mxCell>
        <mxCell id="F-zjbx1C7OTSH0Jt7pCQ-4" style="edgeStyle=orthogonalEdgeStyle;rounded=0;orthogonalLoop=1;jettySize=auto;html=1;exitX=0.5;exitY=1;exitDx=0;exitDy=0;entryX=0.163;entryY=-0.133;entryDx=0;entryDy=0;entryPerimeter=0;" edge="1" parent="1" source="HAvDtYt2oqqFqfZ09htg-1" target="eZfpJ5O-ILhCXWeTk2KZ-31">
          <mxGeometry relative="1" as="geometry" />
        </mxCell>
      </root>
    </mxGraphModel>
  </diagram>
</mxfile>
